<svg width="108" height="80" viewBox="0 0 108 80" fill="none" xmlns="http://www.w3.org/2000/svg">
<g filter="url(#filter0_d_1_458)">
<ellipse cx="7.42554" cy="2.92889" rx="2.5" ry="2.62469" fill="#377DFF"/>
<ellipse cx="7.42554" cy="46.7133" rx="2.5" ry="2.62469" fill="#377DFF"/>
<ellipse cx="44.8157" cy="2.92889" rx="2.5" ry="2.62469" fill="#377DFF"/>
<ellipse cx="44.8157" cy="46.7133" rx="2.5" ry="2.62469" fill="#377DFF"/>
<ellipse cx="82.2056" cy="2.92889" rx="2.5" ry="2.62469" fill="#377DFF"/>
<ellipse cx="82.2056" cy="46.7133" rx="2.5" ry="2.62469" fill="#377DFF"/>
<ellipse cx="7.42554" cy="24.821" rx="2.5" ry="2.62469" fill="#377DFF"/>
<ellipse cx="7.42554" cy="68.6052" rx="2.5" ry="2.62469" fill="#377DFF"/>
<ellipse cx="44.8157" cy="24.821" rx="2.5" ry="2.62469" fill="#377DFF"/>
<ellipse cx="44.8157" cy="68.6052" rx="2.5" ry="2.62469" fill="#377DFF"/>
<ellipse cx="82.2056" cy="24.821" rx="2.5" ry="2.62469" fill="#377DFF"/>
<ellipse cx="82.2056" cy="68.6052" rx="2.5" ry="2.62469" fill="#377DFF"/>
<ellipse cx="26.1206" cy="2.92889" rx="2.5" ry="2.62469" fill="#377DFF"/>
<ellipse cx="26.1206" cy="46.7133" rx="2.5" ry="2.62469" fill="#377DFF"/>
<ellipse cx="63.5105" cy="2.92889" rx="2.5" ry="2.62469" fill="#377DFF"/>
<ellipse cx="63.5105" cy="46.7133" rx="2.5" ry="2.62469" fill="#377DFF"/>
<ellipse cx="100.901" cy="2.92889" rx="2.5" ry="2.62469" fill="#377DFF"/>
<ellipse cx="100.901" cy="46.7133" rx="2.5" ry="2.62469" fill="#377DFF"/>
<ellipse cx="26.1206" cy="24.821" rx="2.5" ry="2.62469" fill="#377DFF"/>
<ellipse cx="26.1206" cy="68.6052" rx="2.5" ry="2.62469" fill="#377DFF"/>
<ellipse cx="63.5105" cy="24.821" rx="2.5" ry="2.62469" fill="#377DFF"/>
<ellipse cx="63.5105" cy="68.6052" rx="2.5" ry="2.62469" fill="#377DFF"/>
<ellipse cx="100.901" cy="24.821" rx="2.5" ry="2.62469" fill="#377DFF"/>
<ellipse cx="100.901" cy="68.6052" rx="2.5" ry="2.62469" fill="#377DFF"/>
</g>
<defs>
<filter id="filter0_d_1_458" x="0.925537" y="0.304199" width="106.475" height="78.9255" filterUnits="userSpaceOnUse" color-interpolation-filters="sRGB">
<feFlood flood-opacity="0" result="BackgroundImageFix"/>
<feColorMatrix in="SourceAlpha" type="matrix" values="0 0 0 0 0 0 0 0 0 0 0 0 0 0 0 0 0 0 127 0" result="hardAlpha"/>
<feOffset dy="4"/>
<feGaussianBlur stdDeviation="2"/>
<feComposite in2="hardAlpha" operator="out"/>
<feColorMatrix type="matrix" values="0 0 0 0 0 0 0 0 0 0 0 0 0 0 0 0 0 0 0.25 0"/>
<feBlend mode="normal" in2="BackgroundImageFix" result="effect1_dropShadow_1_458"/>
<feBlend mode="normal" in="SourceGraphic" in2="effect1_dropShadow_1_458" result="shape"/>
</filter>
</defs>
</svg>
