<svg width="38" height="36" viewBox="0 0 38 36" fill="none" xmlns="http://www.w3.org/2000/svg">
<path fill-rule="evenodd" clip-rule="evenodd" d="M5 3.75C3.89543 3.75 3 4.64543 3 5.75V23.25C3 24.3546 3.89543 25.25 5 25.25H19H33C34.1046 25.25 35 24.3546 35 23.25V5.75C35 4.64543 34.1046 3.75 33 3.75H5ZM20.5 28.25H33C35.7614 28.25 38 26.0114 38 23.25V5.75C38 2.98858 35.7614 0.75 33 0.75H5C2.23858 0.75 0 2.98858 0 5.75V23.25C0 26.0114 2.23858 28.25 5 28.25H17.5V32.25H12C11.1716 32.25 10.5 32.9216 10.5 33.75C10.5 34.5784 11.1716 35.25 12 35.25H19H26C26.8284 35.25 27.5 34.5784 27.5 33.75C27.5 32.9216 26.8284 32.25 26 32.25H20.5V28.25Z" fill="white"/>
</svg>
